<svg width="121" height="110" viewBox="0 0 121 110" fill="none" xmlns="http://www.w3.org/2000/svg">
<path d="M119.984 40.4259C117.097 31.5746 112.128 23.3487 105.604 16.6371C99.0874 9.93684 91.0169 4.73608 82.2672 1.59627L79.7109 0.678589L78.9451 3.28725C78.5922 4.47736 78.3258 5.3369 78.1415 5.85484C75.8593 6.92458 73.4195 7.88935 71.0585 8.82769C63.5254 11.8116 55.7383 14.899 50.3668 21.9784C48.0298 25.0565 47.7595 28.2715 49.6629 30.366C50.6594 31.4639 52.1103 32.0215 53.9757 32.0215C55.1918 32.0215 56.4607 31.7925 57.5792 31.5917C58.3674 31.449 59.182 31.3027 59.6606 31.3027C59.6961 31.3027 59.7281 31.3046 59.76 31.3065C62.5133 31.5035 67.6427 32.4777 72.2371 33.675C77.2858 34.9888 79.9622 36.0999 81.1033 36.7475C80.3374 37.6597 78.2844 39.0694 75.5364 39.0694C74.1926 39.0694 72.8865 38.7222 71.6476 38.0388C69.7519 36.9933 65.0074 36.0007 58.4685 34.8331L57.8341 34.7185C57.56 34.6698 57.2467 34.6453 56.8787 34.6453C54.1309 34.6453 47.6502 35.9759 42.7988 41.0152C38.5553 45.4201 36.5472 51.4917 36.8305 59.059C37.0051 63.7115 38.5834 67.6604 41.3968 70.4754C44.2514 73.3359 48.2285 74.8712 52.8961 74.9274C53.4516 74.9312 54.0091 74.9312 54.5629 74.9312H54.9345C57.6316 74.9312 60.4185 74.9312 62.4792 75.7081C63.7988 76.2035 65.4242 77.1795 66.3025 80.3477C67.2108 83.6434 67.4736 87.0141 67.7438 90.5837C67.999 93.9431 68.2695 97.419 69.1252 100.872C70.8217 107.712 74.3163 109.419 76.9475 109.649C77.3228 109.679 77.6983 109.694 78.0661 109.694C83.9219 109.694 87.8105 105.752 90.99 102.055C91.7482 101.173 92.5777 100.32 93.4562 99.4196C95.3932 97.4339 97.3977 95.3809 98.8242 92.772C100.472 89.7691 101.061 86.6161 101.639 83.5718C102.18 80.6816 102.698 77.9524 104.072 75.5652C104.259 75.2423 104.477 74.8745 104.717 74.458C111.696 62.493 113.373 58.0639 111.898 55.4946C111.234 54.3423 110.018 53.7191 108.599 53.8279C107.923 53.8805 107.255 53.9067 106.617 53.9067C102.413 53.9067 98.9371 52.7505 97.0791 50.7347C96.5535 50.1642 96.3022 49.6724 96.1896 49.3457C96.2534 49.3419 96.3246 49.3402 96.4072 49.3402C97.6384 49.3402 99.5302 49.8451 101.358 50.335C103.569 50.9281 105.859 51.54 107.871 51.54C111.148 51.54 113.28 49.8377 113.749 46.8572C114.215 46.0125 116.399 43.9537 117.878 43.7603L120.941 43.3606L119.984 40.4259ZM19.7349 71.4818C17.809 68.6814 15.6039 65.9713 13.624 63.2142C11.779 60.643 4.57784 48.9503 1.24056 47.1524C0.413897 51.2162 -0.00171371 55.353 5.31068e-06 59.5C5.31068e-06 74.4695 5.34922 88.1855 14.2378 98.8531C14.2452 98.8606 14.2584 98.8644 14.2772 98.8644C14.8157 98.8644 19.8253 95.1409 20.2793 94.7543C22.2518 93.0802 23.9034 91.0346 24.6429 88.5158C26.3677 82.6527 22.9781 76.1963 19.7349 71.4818Z" fill="#5CB053"/>
</svg>
