<svg width="123" height="123" viewBox="0 0 123 123" fill="none" xmlns="http://www.w3.org/2000/svg">
<g clip-path="url(#clip0_377_46)">
<g clip-path="url(#clip1_377_46)">
<path d="M122.998 61.5C122.998 95.4631 95.4652 123 61.5 123C27.535 123 0 95.4631 0 61.5C0 27.535 27.535 0 61.5 0C95.4652 0 122.998 27.535 122.998 61.5Z" fill="#566AB2"/>
<path d="M119.984 42.4259C117.097 33.5746 112.128 25.3487 105.604 18.6371C99.0874 11.9368 91.0169 6.73608 82.2672 3.59627L79.7109 2.67859L78.9451 5.28725C78.5922 6.47736 78.3258 7.3369 78.1415 7.85484C75.8593 8.92458 73.4195 9.88935 71.0585 10.8277C63.5254 13.8116 55.7383 16.899 50.3668 23.9784C48.0298 27.0565 47.7595 30.2715 49.6629 32.366C50.6594 33.4639 52.1103 34.0215 53.9757 34.0215C55.1918 34.0215 56.4607 33.7925 57.5792 33.5917C58.3674 33.449 59.182 33.3027 59.6606 33.3027C59.6961 33.3027 59.7281 33.3046 59.76 33.3065C62.5133 33.5035 67.6427 34.4777 72.2371 35.675C77.2858 36.9888 79.9622 38.0999 81.1033 38.7475C80.3374 39.6597 78.2844 41.0694 75.5364 41.0694C74.1926 41.0694 72.8865 40.7222 71.6476 40.0388C69.7519 38.9933 65.0074 38.0007 58.4685 36.8331L57.8341 36.7185C57.56 36.6698 57.2467 36.6453 56.8787 36.6453C54.1309 36.6453 47.6502 37.9759 42.7988 43.0152C38.5553 47.4201 36.5472 53.4917 36.8305 61.059C37.0051 65.7115 38.5834 69.6604 41.3968 72.4754C44.2514 75.3359 48.2285 76.8712 52.8961 76.9274C53.4516 76.9312 54.0091 76.9312 54.5629 76.9312H54.9345C57.6316 76.9312 60.4185 76.9312 62.4792 77.7081C63.7988 78.2035 65.4242 79.1795 66.3025 82.3477C67.2108 85.6434 67.4736 89.0141 67.7438 92.5837C67.999 95.9431 68.2695 99.419 69.1252 102.872C70.8217 109.712 74.3163 111.419 76.9475 111.649C77.3228 111.679 77.6983 111.694 78.0661 111.694C83.9219 111.694 87.8105 107.752 90.99 104.055C91.7482 103.173 92.5777 102.32 93.4562 101.42C95.3932 99.4339 97.3977 97.3809 98.8242 94.772C100.472 91.7691 101.061 88.6161 101.639 85.5718C102.18 82.6816 102.698 79.9524 104.072 77.5652C104.259 77.2423 104.477 76.8745 104.717 76.458C111.696 64.493 113.373 60.0639 111.898 57.4946C111.234 56.3423 110.018 55.7191 108.599 55.8279C107.923 55.8805 107.255 55.9067 106.617 55.9067C102.413 55.9067 98.9371 54.7505 97.0791 52.7347C96.5535 52.1642 96.3022 51.6724 96.1896 51.3457C96.2534 51.3419 96.3246 51.3402 96.4072 51.3402C97.6384 51.3402 99.5302 51.8451 101.358 52.335C103.569 52.9281 105.859 53.54 107.871 53.54C111.148 53.54 113.28 51.8377 113.749 48.8572C114.215 48.0125 116.399 45.9537 117.878 45.7603L120.941 45.3606L119.984 42.4259ZM19.7349 73.4818C17.809 70.6814 15.6039 67.9713 13.624 65.2142C11.779 62.643 4.57784 50.9503 1.24056 49.1524C0.413897 53.2162 -0.00171371 57.353 5.31068e-06 61.5C5.31068e-06 76.4695 5.34922 90.1855 14.2378 100.853C14.2452 100.861 14.2584 100.864 14.2772 100.864C14.8157 100.864 19.8253 97.1409 20.2793 96.7543C22.2518 95.0802 23.9034 93.0346 24.6429 90.5158C26.3677 84.6527 22.9781 78.1963 19.7349 73.4818Z" fill="#7DBB76"/>
</g>
</g>
<defs>
<clipPath id="clip0_377_46">
<rect width="123" height="123" fill="white"/>
</clipPath>
<clipPath id="clip1_377_46">
<rect width="123" height="123" fill="white"/>
</clipPath>
</defs>
</svg>
