<svg width="186" height="186" viewBox="0 0 186 186" fill="none" xmlns="http://www.w3.org/2000/svg">
<g filter="url(#filter0_d_97_6)">
<path d="M182 89C182 138.153 142.153 178 93 178C43.8467 178 4 138.153 4 89C4 39.8467 43.8467 0 93 0C142.153 0 182 39.8467 182 89Z" fill="#FFFFFE"/>
</g>
<path d="M46.625 112.725H66.425V115.25H62.5V121H67.675V123.525H62.5V134.25H59.875V123.525H53.4C53.15 125.975 52.65 128.05 51.925 129.725C50.95 131.825 49.35 133.45 47.125 134.575L45.7 132.35C47.725 131.175 49.075 129.7 49.775 127.95C50.225 126.7 50.55 125.225 50.75 123.525H45.35V121H50.925C50.925 120.85 50.95 120.725 50.95 120.575V115.25H46.625V112.725ZM53.6 115.25V120.575C53.6 120.725 53.575 120.85 53.575 121H59.875V115.25H53.6ZM72.725 111.275L75.275 111.525C75.075 113.125 74.875 114.6 74.675 115.975H78.175V117.4C78.05 121.375 77.425 124.825 76.3 127.775C77.35 128.9 78.225 129.925 78.925 130.825L77.2 132.875C76.6 132.075 75.9 131.225 75.1 130.325C74.15 132.025 73 133.5 71.65 134.775L70 132.7C71.35 131.5 72.45 130.075 73.325 128.425C72.35 127.425 71.3 126.375 70.15 125.275C70.7 123.175 71.225 120.9 71.675 118.45H70V115.975H72.075C72.325 114.45 72.525 112.875 72.725 111.275ZM74.425 125.875C75.175 123.675 75.625 121.2 75.775 118.45H74.275C73.85 120.85 73.425 122.85 72.975 124.475C73.475 124.95 73.975 125.425 74.425 125.875ZM91.3 123.525V134.625H88.8V133.275H82.3V134.625H79.825V123.525H91.3ZM82.3 130.825H88.8V125.9H82.3V130.825ZM79.025 121.85L78.6 119.5C79.75 119.25 81.45 116.55 83.675 111.4L86.175 112.25C84.875 115.025 83.55 117.4 82.2 119.35C84.45 119.2 86.625 118.95 88.75 118.625C88.2 117.45 87.65 116.35 87.075 115.325L89.3 114.25C90.55 116.4 91.725 118.8 92.85 121.425L90.45 122.6C90.2 121.95 89.95 121.375 89.725 120.825C86.525 121.275 82.95 121.6 79.025 121.85ZM118.375 127.575C118.125 130.15 117.75 131.85 117.25 132.65C116.775 133.4 115.75 133.8 114.15 133.8H107.625C105.975 133.8 105.175 132.95 105.175 131.275V119.925H113.95V114.925H104.15V112.425H116.45V122.425H107.725V130.225C107.725 130.925 108.075 131.3 108.775 131.35H113.725C114.575 131.35 115.125 131 115.325 130.35C115.525 129.7 115.675 128.5 115.775 126.725L118.375 127.575ZM98.45 111.625C100.025 112.85 101.375 114.075 102.5 115.275L100.7 117.1C99.75 115.95 98.375 114.725 96.6 113.425L98.45 111.625ZM94.975 118.85H100.925V129.4C101.725 128.75 102.575 128.025 103.475 127.2L104.175 129.925C102.475 131.425 100.65 132.75 98.725 133.925L97.725 131.575C98.175 131.2 98.4 130.75 98.4 130.225V121.35H94.975V118.85ZM123.2 112.2H138.1V120.275H142.325V122.65H138.45L140.425 124.275C139.125 125.875 137.65 127.15 136 128.05C137.85 129.4 140 130.575 142.45 131.625L141.125 133.925C137.625 132.275 134.8 130.3 132.65 127.975V131.975C132.65 133.725 131.875 134.625 130.35 134.625H127.425L126.85 132.175C127.75 132.275 128.625 132.35 129.475 132.35C129.85 132.35 130.05 132 130.05 131.35V128.075C127.6 130.225 124.7 132.15 121.375 133.875L120.325 131.45C124.075 129.75 127.3 127.75 130.05 125.4V122.65H120.7V120.275H135.45V118.55H124.05V116.3H135.45V114.55H123.2V112.2ZM123.825 123.025C125.275 124.025 126.5 125.025 127.5 126.025L125.8 127.725C124.925 126.775 123.7 125.775 122.1 124.675L123.825 123.025ZM138.4 122.65H132.65V125.1C133.125 125.625 133.65 126.125 134.225 126.625C135.825 125.675 137.225 124.35 138.4 122.65Z" fill="#012644"/>
<path d="M117.5 69.1699C120.833 71.0944 120.833 75.9056 117.5 77.8301L83.75 97.3157C80.4167 99.2402 76.25 96.8346 76.25 92.9856V54.0144C76.25 50.1654 80.4167 47.7598 83.75 49.6843L117.5 69.1699Z" fill="#012644"/>
<defs>
<filter id="filter0_d_97_6" x="0" y="0" width="186" height="186" filterUnits="userSpaceOnUse" color-interpolation-filters="sRGB">
<feFlood flood-opacity="0" result="BackgroundImageFix"/>
<feColorMatrix in="SourceAlpha" type="matrix" values="0 0 0 0 0 0 0 0 0 0 0 0 0 0 0 0 0 0 127 0" result="hardAlpha"/>
<feOffset dy="4"/>
<feGaussianBlur stdDeviation="2"/>
<feComposite in2="hardAlpha" operator="out"/>
<feColorMatrix type="matrix" values="0 0 0 0 0 0 0 0 0 0 0 0 0 0 0 0 0 0 0.25 0"/>
<feBlend mode="normal" in2="BackgroundImageFix" result="effect1_dropShadow_97_6"/>
<feBlend mode="normal" in="SourceGraphic" in2="effect1_dropShadow_97_6" result="shape"/>
</filter>
</defs>
</svg>
