<svg width="186" height="186" viewBox="0 0 186 186" fill="none" xmlns="http://www.w3.org/2000/svg">
<g filter="url(#filter0_d_97_7)">
<circle cx="93" cy="89" r="89" fill="#E16162"/>
</g>
<path d="M54.3 128.125V130.575C51.75 131.475 48.875 132.225 45.625 132.8L45.3 130.25C48.725 129.725 51.725 129.025 54.3 128.125ZM49.15 110.325L51.6 111.275C50.425 114.2 49.225 116.6 48 118.475C48.9 118.375 49.8 118.275 50.7 118.15C51.125 117.325 51.575 116.45 52.075 115.525L54.35 116.375C52.3 120.15 50.55 122.925 49.15 124.725C50.75 124.375 52.35 123.925 54 123.375V125.7C51.175 126.65 48.525 127.3 46.025 127.625L45.325 125.275C45.775 125.075 46.175 124.825 46.5 124.525C47.25 123.775 48.2 122.425 49.35 120.5C48.15 120.65 46.9 120.825 45.6 121L44.975 118.625C45.375 118.45 45.725 118.125 46.05 117.675C47.25 115.45 48.275 113 49.15 110.325ZM53.9 113.3H59.575V110.55H62.2V113.3H67.875V115.8H62.2V118.75H67.15V121.25H54.725V118.75H59.575V115.8H53.9V113.3ZM66.675 123V133.525H64.15V132.6H57.8V133.525H55.25V123H66.675ZM57.8 130.15H64.15V125.45H57.8V130.15ZM70.675 112.75H80.175V110.525H82.825V112.75H92.275V115.275H82.825V117.05H90.625V124.75H84.8C86.55 127 89.375 129 93.25 130.75L91.425 133.025C87.425 130.625 84.575 127.975 82.825 125.05V133.6H80.175V125C78.325 128.25 75.375 130.925 71.35 133.025L69.825 130.6C73.575 129.05 76.35 127.1 78.175 124.75H72.425V117.05H80.175V115.275H70.675V112.75ZM88 122.375V119.475H82.825V122.375H88ZM80.175 122.375V119.475H75.05V122.375H80.175ZM118.375 126.575C118.125 129.15 117.75 130.85 117.25 131.65C116.775 132.4 115.75 132.8 114.15 132.8H107.625C105.975 132.8 105.175 131.95 105.175 130.275V118.925H113.95V113.925H104.15V111.425H116.45V121.425H107.725V129.225C107.725 129.925 108.075 130.3 108.775 130.35H113.725C114.575 130.35 115.125 130 115.325 129.35C115.525 128.7 115.675 127.5 115.775 125.725L118.375 126.575ZM98.45 110.625C100.025 111.85 101.375 113.075 102.5 114.275L100.7 116.1C99.75 114.95 98.375 113.725 96.6 112.425L98.45 110.625ZM94.975 117.85H100.925V128.4C101.725 127.75 102.575 127.025 103.475 126.2L104.175 128.925C102.475 130.425 100.65 131.75 98.725 132.925L97.725 130.575C98.175 130.2 98.4 129.75 98.4 129.225V120.35H94.975V117.85ZM123.2 111.2H138.1V119.275H142.325V121.65H138.45L140.425 123.275C139.125 124.875 137.65 126.15 136 127.05C137.85 128.4 140 129.575 142.45 130.625L141.125 132.925C137.625 131.275 134.8 129.3 132.65 126.975V130.975C132.65 132.725 131.875 133.625 130.35 133.625H127.425L126.85 131.175C127.75 131.275 128.625 131.35 129.475 131.35C129.85 131.35 130.05 131 130.05 130.35V127.075C127.6 129.225 124.7 131.15 121.375 132.875L120.325 130.45C124.075 128.75 127.3 126.75 130.05 124.4V121.65H120.7V119.275H135.45V117.55H124.05V115.3H135.45V113.55H123.2V111.2ZM123.825 122.025C125.275 123.025 126.5 124.025 127.5 125.025L125.8 126.725C124.925 125.775 123.7 124.775 122.1 123.675L123.825 122.025ZM138.4 121.65H132.65V124.1C133.125 124.625 133.65 125.125 134.225 125.625C135.825 124.675 137.225 123.35 138.4 121.65Z" fill="#012644"/>
<rect x="68" y="48" width="49" height="49" rx="6" fill="#012644"/>
<defs>
<filter id="filter0_d_97_7" x="0" y="0" width="186" height="186" filterUnits="userSpaceOnUse" color-interpolation-filters="sRGB">
<feFlood flood-opacity="0" result="BackgroundImageFix"/>
<feColorMatrix in="SourceAlpha" type="matrix" values="0 0 0 0 0 0 0 0 0 0 0 0 0 0 0 0 0 0 127 0" result="hardAlpha"/>
<feOffset dy="4"/>
<feGaussianBlur stdDeviation="2"/>
<feComposite in2="hardAlpha" operator="out"/>
<feColorMatrix type="matrix" values="0 0 0 0 0 0 0 0 0 0 0 0 0 0 0 0 0 0 0.25 0"/>
<feBlend mode="normal" in2="BackgroundImageFix" result="effect1_dropShadow_97_7"/>
<feBlend mode="normal" in="SourceGraphic" in2="effect1_dropShadow_97_7" result="shape"/>
</filter>
</defs>
</svg>
